# xmcd
# 
# Track frame offsets:
#     222
#     18735
#     42347
# 
# Disc length: 953
# 
# Revision: 0
# Processed by: cddbd v1.5.2PL0 Copyright (c) Steve Scherf et al.
# Submitted via: fre:ac v1.0.27
# 
DISCID=2003b703
DTITLE=Patti La Belle - Yo Mister
DYEAR=0
DGENRE=Soul
TTITLE0=Yo Mister (Edit)
TTITLE1=I Can Fly
TTITLE2=Yo Mister (Extended Version)
EXTD=
EXTT0=
EXTT1=
EXTT2=
PLAYORDER=
